<?xml version="1.0" standalone="no"?>
<!DOCTYPE svg PUBLIC "-//W3C//DTD SVG 20010904//EN"
 "http://www.w3.org/TR/2001/REC-SVG-20010904/DTD/svg10.dtd">
<svg version="1.0" xmlns="http://www.w3.org/2000/svg"
 width="225.000000pt" height="109.000000pt" viewBox="0 0 225.000000 109.000000"
 preserveAspectRatio="xMidYMid meet">
<metadata>
Created by potrace 1.15, written by Peter Selinger 2001-2017
</metadata>
<g transform="translate(0.000000,109.000000) scale(0.100000,-0.100000)"
fill="#000000" stroke="none">
<path d="M0 545 l0 -545 1125 0 1125 0 0 545 0 545 -1125 0 -1125 0 0 -545z
m410 291 l5 -199 115 199 116 199 124 0 125 0 3 -209 2 -209 124 189 c68 104
131 199 140 212 16 21 22 22 192 22 197 0 202 -2 165 -66 -12 -20 -142 -228
-288 -461 l-266 -423 -156 2 -156 3 -5 205 -5 204 -108 -186 c-59 -102 -116
-195 -126 -207 -17 -20 -28 -21 -168 -21 -102 0 -153 4 -161 12 -9 9 -12 125
-12 459 0 246 3 455 6 463 6 14 27 16 168 14 l161 -3 5 -199z m1616 189 c3 -8
-20 -91 -51 -185 l-57 -170 -111 0 -112 0 -74 -277 c-41 -153 -78 -284 -84
-291 -7 -9 -58 -12 -192 -12 -150 0 -185 3 -195 15 -10 12 -5 36 28 130 34 95
61 146 165 307 68 106 168 262 221 346 l98 152 179 0 c149 0 181 -3 185 -15z"/>
<path d="M1627 938 c-344 -534 -389 -610 -423 -703 -19 -53 -34 -102 -34 -110
0 -13 27 -15 168 -15 103 0 172 4 178 10 6 6 44 137 85 290 l74 280 112 0 112
0 12 43 c6 23 17 56 24 72 24 55 65 181 65 198 0 15 -17 17 -160 17 l-160 0
-53 -82z"/>
</g>
</svg>
